<?xml version="1.0" encoding="UTF-8" standalone="no"?>
<!-- Created with Inkscape (http://www.inkscape.org/) -->

<svg
   xmlns:dc="http://purl.org/dc/elements/1.1/"
   xmlns:cc="http://creativecommons.org/ns#"
   xmlns:rdf="http://www.w3.org/1999/02/22-rdf-syntax-ns#"
   xmlns:svg="http://www.w3.org/2000/svg"
   xmlns="http://www.w3.org/2000/svg"
   xmlns:sodipodi="http://sodipodi.sourceforge.net/DTD/sodipodi-0.dtd"
   xmlns:inkscape="http://www.inkscape.org/namespaces/inkscape"
   width="480"
   height="480"
   viewBox="0 0 480 480"
   id="svg4816"
   version="1.1"
   inkscape:version="0.92.2 5c3e80d, 2017-08-06"
   sodipodi:docname="dita-ot-logo-jumbotron-bg.svg">
  <defs
     id="defs4818" />
  <sodipodi:namedview
     id="base"
     pagecolor="#ffffff"
     bordercolor="#666666"
     borderopacity="1.0"
     inkscape:pageopacity="0.0"
     inkscape:pageshadow="2"
     inkscape:zoom="1"
     inkscape:cx="243.93213"
     inkscape:cy="54.83075"
     inkscape:document-units="px"
     inkscape:current-layer="layer1"
     showgrid="false"
     borderlayer="true"
     units="px"
     showborder="false"
     width="480px"
     inkscape:window-width="2560"
     inkscape:window-height="1395"
     inkscape:window-x="-1"
     inkscape:window-y="1"
     inkscape:window-maximized="0"
     showguides="true"
     inkscape:guide-bbox="true"
     inkscape:pagecheckerboard="true" />
  <metadata
     id="metadata4821">
    <rdf:RDF>
      <cc:Work
         rdf:about="">
        <dc:format>image/svg+xml</dc:format>
        <dc:type
           rdf:resource="http://purl.org/dc/dcmitype/StillImage" />
        <dc:title></dc:title>
      </cc:Work>
    </rdf:RDF>
  </metadata>
  <g
     inkscape:label="Layer 1"
     inkscape:groupmode="layer"
     id="layer1"
     transform="translate(0,-572.3622)"
     style="display:inline">
    <g
       id="g50"
       transform="translate(-606.57326,-12.948375)">
      <path
         inkscape:export-ydpi="96"
         inkscape:export-xdpi="96"
         inkscape:connector-curvature="0"
         id="rect5672"
         d="m 673.44062,585.42245 c -37.1586,0 -67.0743,29.9137 -67.0743,67.0722 v 345.85346 c 0,37.15859 29.9157,67.07419 67.0743,67.07419 h 345.85348 c 37.1585,0 67.0722,-29.9156 67.0722,-67.07419 V 652.49465 c 0,-37.1585 -29.9137,-67.0722 -67.0722,-67.0722 z m 4.4863,35 h 336.88078 c 20.2543,0 36.5587,16.3063 36.5587,36.5605 v 336.87886 c 0,20.25419 -16.3044,36.56049 -36.5587,36.56049 H 677.92692 c -20.2542,0 -36.5606,-16.3063 -36.5606,-36.56049 V 656.98295 c 0,-20.2542 16.3064,-36.5605 36.5606,-36.5605 z"
         style="opacity:1;fill:#1d365d;fill-opacity:1;stroke:none;stroke-width:10.06999969;stroke-miterlimit:4;stroke-dasharray:none;stroke-opacity:1" />
      <path
         inkscape:export-ydpi="96"
         inkscape:export-xdpi="96"
         inkscape:connector-curvature="0"
         id="path5086-3-4-9-3-4-0-8-6-1-2-0"
         d="m 880.49052,600.4803 c -4.1402,-0.10906 -9.2763,1.0993 -15.8496,4.83789 l -23.3223,15.81055 -142.332,114.46484 -1.9512,-2.38281 1.9433,2.38867 c -9.9106,7.86546 -15.539,17.96805 -15.539,29.67187 0,10.93407 5.2605,20.56193 14.6055,28.47266 l 0.043,0.0391 v 0 l 216.8067,177.58985 c 17.316,12.51869 33.4725,10.24166 40.0156,8.20703 0,0 6.7808,-1.25006 12.4648,-6.53907 0.1332,-0.0795 0.2642,-0.14785 0.3985,-0.23242 l 113.36708,-92.86133 v -19.4082 -24.53515 l -125.25388,102.00781 0.012,0.0117 -0.1191,0.16797 c -0.3181,0.24304 -0.6276,0.46106 -0.9531,0.72656 -6.1958,5.05336 -16.7803,9.67545 -30.9434,-3.90039 -0.7584,-0.7269 -2.3457,-2.10547 -2.3457,-2.10547 l -204.3477,-167.02346 192.6172,-156.87109 -8.7461,-1.41016 c 0,0 -1.0454,-0.18452 -3.0507,-0.21289 v -0.002 c -4.1361,-0.0585 -8.4211,-6.67218 -17.5293,-6.91211 z"
         style="color:#000000;font-style:normal;font-variant:normal;font-weight:normal;font-stretch:normal;font-size:859.96350098px;line-height:125%;font-family:Gulim;-inkscape-font-specification:Gulim;text-indent:0;text-align:start;text-decoration:none;text-decoration-line:none;text-decoration-style:solid;text-decoration-color:#000000;letter-spacing:0px;word-spacing:0px;text-transform:none;writing-mode:lr-tb;direction:ltr;baseline-shift:baseline;text-anchor:start;white-space:normal;clip-rule:nonzero;display:inline;overflow:visible;visibility:visible;opacity:1;isolation:auto;mix-blend-mode:normal;color-interpolation:sRGB;color-interpolation-filters:linearRGB;solid-color:#000000;solid-opacity:1;fill:#1d365d;fill-opacity:1;fill-rule:nonzero;stroke:none;stroke-width:29.66900063;stroke-linecap:butt;stroke-linejoin:miter;stroke-miterlimit:4;stroke-dasharray:none;stroke-dashoffset:0;stroke-opacity:0;color-rendering:auto;image-rendering:auto;shape-rendering:auto;text-rendering:auto;enable-background:accumulate" />
      <rect
         inkscape:export-ydpi="96"
         inkscape:export-xdpi="96"
         y="766.71448"
         x="683.45471"
         height="272.41464"
         width="33.943089"
         id="rect5798"
         style="opacity:1;fill:#1d365d;fill-opacity:1;stroke:none;stroke-width:10.24058437;stroke-miterlimit:4;stroke-dasharray:none;stroke-opacity:1" />
      <rect
         inkscape:export-ydpi="96"
         inkscape:export-xdpi="96"
         y="950.69147"
         x="923.49536"
         height="82.926834"
         width="37.804878"
         id="rect5798-3"
         style="opacity:1;fill:#1d365d;fill-opacity:1;stroke:none;stroke-width:10.06999969;stroke-miterlimit:4;stroke-dasharray:none;stroke-opacity:1" />
      <path
         inkscape:export-ydpi="96"
         inkscape:export-xdpi="96"
         id="rect4612-3-3-4-3"
         d="M 895.64758,585.19885 H 1086.7802 V 862.06543 H 895.64758 Z"
         style="font-style:normal;font-weight:normal;font-size:medium;line-height:125%;font-family:sans-serif;letter-spacing:0px;word-spacing:0px;fill:#e9ecef;fill-opacity:1;fill-rule:evenodd;stroke:#ffffff;stroke-width:0;stroke-linecap:round;stroke-linejoin:round;stroke-miterlimit:4;stroke-dasharray:none;stroke-opacity:0"
         inkscape:connector-curvature="0" />
      <g
         inkscape:export-ydpi="96"
         inkscape:export-xdpi="96"
         transform="matrix(-1.0586667,0,0,1.1686254,-2724.4599,491.50698)"
         id="g4614-5-2-4-7-8-7"
         style="font-style:normal;font-weight:normal;font-size:medium;line-height:125%;font-family:sans-serif;letter-spacing:0px;word-spacing:0px;fill:#1d365d;fill-opacity:1;stroke:#1d365d;stroke-width:41.96006012;stroke-linecap:butt;stroke-linejoin:miter;stroke-miterlimit:4;stroke-dasharray:none;stroke-opacity:1">
        <path
           sodipodi:nodetypes="csscccsssccsccccccsssc"
           style="fill:#1d365d;fill-opacity:1;fill-rule:evenodd;stroke:#ffffff;stroke-width:3.48284769;stroke-linecap:butt;stroke-linejoin:miter;stroke-miterlimit:4;stroke-dasharray:none;stroke-opacity:0"
           d="m -3508.1011,82.835833 c -1.4721,0 -2.9428,0.062 -4.4083,0.1777 -23.4474,1.8511 -37.6396,10.4902 -41.9589,18.511697 -4.3193,8.0215 -5.5528,19.1289 -5.5528,19.1289 l -24.0644,20.9786 31.4687,11.1074 c 0,0 1.8516,4.9355 1.8516,12.957 0,8.0215 -4.9377,45.6606 -5.5547,55.5332 -0.617,9.8726 1.852,43.80934 19.7461,70.34184 12.4111,18.4027 32.544,40.0624 56.8906,52.6426 l 10.1992,4.6094 c 7.7633,3.0122 15.8718,5.0323 24.2325,5.6855 14.7244,1.1503 28.2449,-0.5314 39.6718,-3.6035 l 15.8399,-3.209 29.0895,-6.87727 c -9.2555,-15.4259 1.7826,-8.52273 -1.9196,-14.69303 -0.809,-1.3484 -1.8894,-2.5099 -3.0742,-3.5176 3.7871,-6.4192 7.2225,-11.706 6.7773,-14.3769 -0.617,-3.7022 -5.5539,-55.5333 -18.5117,-71.57624 -12.9578,-16.043 -44.4271,-46.2776 -49.9805,-62.9375 -5.5533,-16.66 -9.8723,-57.3835 -23.4472,-68.4902 -12.7264,-10.412597 -35.2136,-22.453597 -57.2949,-22.392597 z"
           id="path4488-5-2-5-8-8-8-3-1"
           inkscape:connector-curvature="0" />
        <path
           style="fill:#ffffff;fill-opacity:1;fill-rule:evenodd;stroke:#000000;stroke-width:1.56457257px;stroke-linecap:butt;stroke-linejoin:miter;stroke-opacity:0"
           d="m -3571.3051,138.49883 22.5455,-19.93 c 0,0 9.0182,1.6609 12.5253,4.9826 3.5071,3.3216 6.5132,9.4112 6.5132,9.4112 0,0 -2.5051,2.2145 -3.5071,7.197 -1.002,4.9825 -1.5031,11.0722 -1.5031,11.0722 z"
           id="path4490-2-3-8-7-6-3-5-7"
           inkscape:connector-curvature="0" />
        <path
           style="fill:#ffffff;fill-opacity:1;fill-rule:evenodd;stroke:#000000;stroke-width:1.9443512px;stroke-linecap:butt;stroke-linejoin:miter;stroke-opacity:0"
           d="m -3512.493,108.48286 c 0,0 -12.9744,-3.96187 -12.3257,3.96188 0.6487,7.92386 1.2975,11.22535 8.4334,12.54601 7.1359,1.32067 15.5692,-0.66027 15.5692,-5.28253 0,-4.62216 -11.6769,-11.22536 -11.6769,-11.22536 z"
           id="path4496-3-9-8-7-9-8-2-9"
           inkscape:connector-curvature="0" />
      </g>
      <path
         inkscape:export-ydpi="96"
         inkscape:export-xdpi="96"
         sodipodi:nodetypes="csscsscc"
         style="font-style:normal;font-weight:normal;font-size:medium;line-height:125%;font-family:sans-serif;letter-spacing:0px;word-spacing:0px;fill:#1d365d;fill-opacity:1;fill-rule:evenodd;stroke:#e9ecef;stroke-width:16.56999969;stroke-linecap:butt;stroke-linejoin:miter;stroke-miterlimit:4;stroke-dasharray:none;stroke-opacity:1"
         d="m 907.68332,715.66085 c 0,0 -1.2363,55.33522 -9.2234,79.52629 -10.12,30.6508 -22.5779,40.90107 -41.0884,69.49058 -21.5219,33.24059 -84.484,105.45486 -84.484,105.45486 0,0 20.8938,-107.54313 28.1613,-133.64579 7.2674,-26.10273 43.6047,-96.05785 60.8648,-110.67533 17.2602,-14.61766 29.9782,-18.79401 34.5202,-20.88227 4.5422,-2.08809 11.2495,10.73166 11.2495,10.73166 z"
         id="path4492-8-9-2-3-2-9-2-8"
         inkscape:connector-curvature="0" />
    </g>
  </g>
</svg>
