<svg xmlns="http://www.w3.org/2000/svg" width="480" height="480"><g style="display:inline"><path style="opacity:1;fill:#1d365d;fill-opacity:1;stroke:none;stroke-width:10.06999969;stroke-miterlimit:4;stroke-dasharray:none;stroke-opacity:1" d="M66.867.111C29.71.111-.207 30.025-.207 67.184v345.853c0 37.159 29.916 67.074 67.074 67.074h345.854c37.158 0 67.072-29.915 67.072-67.074V276.754h-37.225L349.314 352.7l.012.012-.119.168c-.318.243-.628.46-.953.726-6.196 5.054-16.78 9.676-30.943-3.9-.759-.727-2.346-2.105-2.346-2.105l-37.15-30.366a113.794 113.794 0 0 0 38.525 3.25c8.851-.763 17.435-3.124 25.654-6.644l10.797-5.387c25.775-14.701 47.09-40.014 60.229-61.52 18.943-31.006 21.557-70.665 20.904-82.203-.653-11.537-5.881-55.524-5.881-64.898 0-9.374 1.96-15.14 1.96-15.14l33.315-12.981-25.476-24.518s-1.304-12.98-5.877-22.353c-4.573-9.374-19.6-19.47-44.422-21.633A53.756 53.756 0 0 0 382.877 3c-28.68-.602-48.582 9.66-55.883 20.69-10.51 15.878-23.716 66.05-29.596 85.519a36.044 36.044 0 0 1-1.175 3.23c2.657 2.235 5.36 4.719 7.554 6.739 26.003 20.649 13.79 71.047-2.523 100.97-14.311 26.253-32.952 51.202-50.818 74.71l-.141-.116a542.746 542.746 0 0 1-8.844 11.947l-1.031 1.358h.004a962.85 962.85 0 0 1-10.647 13.68l78.545 64.336a55.37 55.37 0 0 0 8.6 5.125v53.923H110.824V224.29l68.297 55.943c3.26-14.811 5.407-23.44 8.945-36.351l-77.449-63.303L289.074 35.24V.111zm4.487 35h164.435l-1.043.707L92.31 150.355c-9.911 7.866-15.442 17.902-15.442 29.606 0 .485.023.964.043 1.443h-.03v263.707h-5.526c-20.255 0-36.561-16.306-36.561-36.56V71.67c0-20.253 16.306-36.56 36.56-36.56zm210.751 89.387c-7.36-.23-15.934 6.87-20.398 12.264-11.56 13.97-13.83 18.025-19.977 27.564-6.418 9.962-12.59 20.152-17.591 30.895-9.003 19.335-16.092 39.578-22.174 60.021a534.76 534.76 0 0 0-10.404 40.694c-6.829 31.766-9.737 46.112-10.295 53.779-.223 3.07.908 1.679 1.938.668 14.502-14.234 26.694-30.344 33.728-39.18a755.015 755.015 0 0 0 20.513-26.963c27.478-37.815 33.296-42.69 49.203-72 17.7-32.612 21.394-73.046.293-86.3-1.503-.945-3.137-1.389-4.836-1.442zm162.688 194.527v89.526c0 20.254-16.304 36.56-36.559 36.56h-53.507v-53.177c1.932-.983 4.07-2.337 6.076-4.204.133-.079.264-.147.398-.232z"/><path d="m1056.362 653.36-23.868-23.29s-9.548 1.94-13.26 5.822c-3.713 3.882-6.896 10.998-6.896 10.998s2.652 2.588 3.713 8.411c1.06 5.823 1.591 12.94 1.591 12.94z" style="font-style:normal;font-weight:400;font-size:medium;line-height:125%;font-family:sans-serif;letter-spacing:0;word-spacing:0;fill:#fff;fill-opacity:1;fill-rule:evenodd;stroke:#000;stroke-width:1.74025548px;stroke-linecap:butt;stroke-linejoin:miter;stroke-miterlimit:4;stroke-dasharray:none;stroke-opacity:0" transform="translate(-606.573 -585.31)"/><path d="M994.1 618.283c4.377-1.464 11.922-2.943 13.048 4.63 1.366 9.184-1.373 13.118-8.928 14.661-7.554 1.544-16.482-.771-16.482-6.173s6.459-11.145 12.361-13.118z" style="font-style:normal;font-weight:400;font-size:medium;line-height:125%;font-family:sans-serif;letter-spacing:0;word-spacing:0;fill:#fff;fill-opacity:1;fill-rule:evenodd;stroke:#000;stroke-width:2.16267872px;stroke-linecap:butt;stroke-linejoin:miter;stroke-miterlimit:4;stroke-dasharray:none;stroke-opacity:0" transform="translate(-606.573 -585.31)"/></g></svg>